<?xml version="1.0" encoding="UTF-8" standalone="no"?>
<!DOCTYPE svg PUBLIC "-//W3C//DTD SVG 1.1//EN" "http://www.w3.org/Graphics/SVG/1.1/DTD/svg11.dtd">
<svg width="100%" height="100%" viewBox="0 0 378 345" version="1.1" xmlns="http://www.w3.org/2000/svg" xmlns:xlink="http://www.w3.org/1999/xlink" xml:space="preserve" xmlns:serif="http://www.serif.com/" style="fill-rule:evenodd;clip-rule:evenodd;stroke-linejoin:round;stroke-miterlimit:2;">
    <g transform="matrix(1,0,0,1,-2615,-992)">
        <g id="x-black" serif:id="x black" transform="matrix(0.687107,0,0,0.706494,1095.12,1039.34)">
            <rect x="2212" y="-67" width="549" height="487" style="fill:none;"/>
            <clipPath id="_clip1">
                <rect x="2212" y="-67" width="549" height="487"/>
            </clipPath>
            <g clip-path="url(#_clip1)">
                <g transform="matrix(15.6857,0,0,13.9143,-82553.6,-10822.7)">
                    <g transform="matrix(1.4,0,0,1.4,-2161.6,-317.6)">
                        <rect x="5404" y="779" width="5" height="5"/>
                    </g>
                    <g transform="matrix(1.4,0,0,1.4,-2154.6,-310.6)">
                        <rect x="5404" y="779" width="5" height="5"/>
                    </g>
                    <g transform="matrix(1.4,0,0,1.4,-2147.6,-303.6)">
                        <rect x="5404" y="779" width="5" height="5"/>
                    </g>
                    <g transform="matrix(1.4,0,0,1.4,-2140.6,-296.6)">
                        <rect x="5404" y="779" width="5" height="5"/>
                    </g>
                    <g transform="matrix(1.4,0,0,1.4,-2133.6,-289.6)">
                        <rect x="5404" y="779" width="5" height="5"/>
                    </g>
                    <g transform="matrix(8.57253e-17,-1.4,1.4,8.57253e-17,4334.4,8352.6)">
                        <rect x="5404" y="779" width="5" height="5"/>
                    </g>
                    <g transform="matrix(8.57253e-17,-1.4,1.4,8.57253e-17,4341.4,8345.6)">
                        <rect x="5404" y="779" width="5" height="5"/>
                    </g>
                    <g transform="matrix(8.57253e-17,1.4,-1.4,8.57253e-17,6508.6,-6771.6)">
                        <rect x="5404" y="779" width="5" height="5"/>
                    </g>
                    <g transform="matrix(8.57253e-17,1.4,-1.4,8.57253e-17,6501.6,-6764.6)">
                        <rect x="5404" y="779" width="5" height="5"/>
                    </g>
                </g>
            </g>
        </g>
        <g id="ektra">
        </g>
    </g>
</svg>
